<?xml version="1.0" encoding="UTF-8" standalone="no"?>
<!-- Created with Inkscape (http://www.inkscape.org/) -->

<svg
   version="1.1"
   id="svg2"
   xml:space="preserve"
   width="793.91998"
   height="1122.5601"
   viewBox="0 0 793.91998 1122.5601"
   sodipodi:docname="cover.svg"
   inkscape:version="1.1.2 (0a00cf5339, 2022-02-04)"
   xmlns:inkscape="http://www.inkscape.org/namespaces/inkscape"
   xmlns:sodipodi="http://sodipodi.sourceforge.net/DTD/sodipodi-0.dtd"
   xmlns="http://www.w3.org/2000/svg"
   xmlns:svg="http://www.w3.org/2000/svg"><defs
     id="defs6" /><sodipodi:namedview
     id="namedview4"
     pagecolor="#ffffff"
     bordercolor="#666666"
     borderopacity="1.0"
     inkscape:pageshadow="2"
     inkscape:pageopacity="0.0"
     inkscape:pagecheckerboard="0"
     showgrid="false"
     inkscape:zoom="0.7384392"
     inkscape:cx="343.96874"
     inkscape:cy="572.82983"
     inkscape:window-width="1920"
     inkscape:window-height="1011"
     inkscape:window-x="0"
     inkscape:window-y="32"
     inkscape:window-maximized="1"
     inkscape:current-layer="g10" /><g
     id="g8"
     inkscape:groupmode="layer"
     inkscape:label="cover"
     transform="matrix(1.3333333,0,0,1.3333333,0,6.9397335e-5)"><g
       id="g10"><path
         d="m 199.16,795.031 v -1.125 h 2.594 v -14.218 h -2.594 v -1.126 h 10.328 c 2.426,0 4.422,0.758 5.985,2.266 1.57,1.5 2.359,3.539 2.359,6.11 0,2.523 -0.781,4.5 -2.344,5.937 -1.554,1.437 -3.547,2.156 -5.984,2.156 z m 5.86,-1.125 h 3.5 c 2.218,0 3.796,-0.672 4.734,-2.015 0.375,-0.551 0.641,-1.192 0.797,-1.922 0.164,-0.739 0.25,-1.754 0.25,-3.047 0,-2.383 -0.344,-4.082 -1.031,-5.094 -0.993,-1.414 -2.575,-2.129 -4.75,-2.14 h -3.5 z"
         style="fill:#000000;fill-opacity:1;fill-rule:nonzero;stroke:none"
         id="path12" /><path
         d="m 220.145,792.438 c 0,-2.29 2.593,-3.547 7.781,-3.766 v -0.813 c 0,-1.894 -0.875,-2.843 -2.625,-2.843 -0.625,0 -1.203,0.058 -1.735,0.172 0.344,0.242 0.516,0.636 0.516,1.187 0,0.469 -0.152,0.84 -0.453,1.109 -0.293,0.262 -0.641,0.391 -1.047,0.391 -0.375,0 -0.719,-0.129 -1.031,-0.391 -0.313,-0.269 -0.469,-0.64 -0.469,-1.109 0,-1.469 1.438,-2.207 4.313,-2.219 1.718,0 3.023,0.34 3.921,1.016 0.907,0.668 1.36,1.562 1.36,2.687 v 5.157 c 0,0.23 0.015,0.39 0.047,0.484 0.031,0.094 0.156,0.188 0.375,0.281 0.226,0.086 0.578,0.125 1.047,0.125 0.132,0 0.234,0.012 0.296,0.032 0.063,0.011 0.129,0.058 0.204,0.14 0.07,0.074 0.109,0.199 0.109,0.375 0,0.262 -0.059,0.422 -0.172,0.485 -0.105,0.062 -0.305,0.093 -0.594,0.093 h -1.156 c -0.594,0 -1.074,-0.054 -1.437,-0.172 -0.368,-0.113 -0.618,-0.281 -0.75,-0.5 -0.137,-0.226 -0.219,-0.414 -0.25,-0.562 -0.032,-0.156 -0.047,-0.363 -0.047,-0.625 -0.688,1.336 -1.883,2 -3.578,2 -0.481,0 -0.965,-0.039 -1.454,-0.11 -0.48,-0.07 -0.976,-0.195 -1.484,-0.374 -0.512,-0.188 -0.922,-0.469 -1.234,-0.844 -0.305,-0.383 -0.453,-0.852 -0.453,-1.406 z m 2.796,-0.016 c 0,0.531 0.211,0.98 0.641,1.344 0.426,0.367 0.941,0.546 1.547,0.546 0.207,0 0.441,-0.031 0.703,-0.093 0.27,-0.071 0.578,-0.188 0.922,-0.344 0.344,-0.156 0.625,-0.426 0.844,-0.813 0.218,-0.382 0.328,-0.843 0.328,-1.374 v -2.266 c -0.344,0.012 -0.672,0.039 -0.985,0.078 -0.312,0.043 -0.734,0.133 -1.265,0.266 -0.531,0.136 -0.981,0.304 -1.344,0.5 -0.367,0.187 -0.687,0.468 -0.969,0.843 -0.281,0.375 -0.422,0.813 -0.422,1.313 z"
         style="fill:#000000;fill-opacity:1;fill-rule:nonzero;stroke:none"
         id="path14" /><path
         d="m 232.621,785.5 v -1.125 c 0.156,0 0.586,0.016 1.297,0.047 0.707,0.023 1.187,0.031 1.437,0.031 1.188,0 2.18,-0.023 2.985,-0.078 v 1.125 h -1.297 l 3.047,6.547 2.781,-6 c 0.082,-0.156 0.125,-0.25 0.125,-0.281 0,-0.176 -0.355,-0.266 -1.062,-0.266 -0.032,0 -0.063,0 -0.094,0 v -1.125 c 1.008,0.055 1.738,0.078 2.187,0.078 0.657,0 1.285,-0.023 1.891,-0.078 v 1.125 c -0.699,0 -1.152,0.039 -1.359,0.109 -0.2,0.075 -0.34,0.203 -0.422,0.391 l -3.985,8.547 c -0.179,0.387 -0.476,0.578 -0.89,0.578 -0.418,0 -0.719,-0.195 -0.907,-0.594 l -4.203,-9.031 z"
         style="fill:#000000;fill-opacity:1;fill-rule:nonzero;stroke:none"
         id="path16" /><path
         d="m 247.664,795.031 v -1.125 h 1.672 v -7.422 c 0,-0.445 -0.086,-0.711 -0.25,-0.796 -0.156,-0.094 -0.606,-0.141 -1.344,-0.141 v -1.125 l 4.172,-0.203 v 9.687 h 1.5 v 1.125 c -1.73,-0.051 -2.668,-0.078 -2.812,-0.078 -0.469,0 -1.45,0.027 -2.938,0.078 z m 1.281,-13.484 c -0.355,-0.375 -0.531,-0.817 -0.531,-1.328 0,-0.508 0.176,-0.946 0.531,-1.313 0.364,-0.363 0.813,-0.547 1.344,-0.547 0.52,0 0.961,0.184 1.328,0.547 0.363,0.367 0.547,0.805 0.547,1.313 0,0.511 -0.187,0.953 -0.562,1.328 -0.368,0.367 -0.805,0.547 -1.313,0.547 -0.531,0 -0.98,-0.18 -1.344,-0.547 z"
         style="fill:#000000;fill-opacity:1;fill-rule:nonzero;stroke:none"
         id="path18" /><path
         d="m 264.91,794.625 v -4.375 c 0,-0.301 0.024,-0.488 0.078,-0.562 0.063,-0.083 0.227,-0.126 0.5,-0.126 0.125,0 0.223,0.012 0.297,0.032 0.07,0.011 0.129,0.043 0.172,0.094 0.039,0.042 0.063,0.093 0.063,0.156 0.007,0.054 0.015,0.14 0.015,0.265 0.051,0.825 0.281,1.532 0.688,2.125 0.414,0.586 0.937,1.008 1.562,1.266 0.633,0.25 1.223,0.422 1.766,0.516 0.539,0.093 1.094,0.14 1.656,0.14 1.125,0 1.926,-0.285 2.406,-0.859 0.477,-0.57 0.719,-1.219 0.719,-1.938 0,-0.75 -0.324,-1.445 -0.969,-2.093 -0.25,-0.239 -0.531,-0.407 -0.843,-0.5 -0.313,-0.094 -1.047,-0.27 -2.204,-0.532 -1.449,-0.32 -2.445,-0.586 -2.984,-0.796 -0.543,-0.208 -1.078,-0.579 -1.609,-1.11 -0.875,-0.914 -1.313,-1.984 -1.313,-3.203 0,-1.363 0.461,-2.504 1.391,-3.422 0.937,-0.926 2.269,-1.391 4,-1.391 1.625,0 2.988,0.438 4.094,1.313 l 1.078,-1.063 c 0.187,-0.164 0.343,-0.25 0.468,-0.25 0,0 0.004,0 0.016,0 0.195,0 0.316,0.043 0.359,0.126 0.051,0.085 0.079,0.261 0.079,0.531 v 4.406 c 0,0.281 -0.032,0.465 -0.094,0.547 -0.055,0.074 -0.215,0.109 -0.485,0.109 -0.242,0 -0.39,-0.023 -0.453,-0.078 -0.054,-0.051 -0.101,-0.226 -0.14,-0.531 -0.188,-1.031 -0.563,-1.863 -1.125,-2.5 -0.555,-0.645 -1.141,-1.067 -1.766,-1.266 -0.625,-0.207 -1.297,-0.312 -2.016,-0.312 -1.086,0 -1.867,0.261 -2.343,0.781 -0.481,0.512 -0.719,1.09 -0.719,1.734 0,0.668 0.238,1.219 0.719,1.657 0.476,0.429 1.004,0.711 1.578,0.843 l 3.469,0.735 c 1.156,0.242 2.132,0.824 2.937,1.75 0.801,0.929 1.203,2.031 1.203,3.312 0,1.375 -0.453,2.578 -1.359,3.61 -0.906,1.023 -2.274,1.531 -4.094,1.531 -2.012,0 -3.609,-0.442 -4.797,-1.328 l -1.109,1.109 c -0.156,0.145 -0.309,0.219 -0.453,0.219 -0.2,0 -0.325,-0.047 -0.375,-0.141 -0.043,-0.086 -0.063,-0.258 -0.063,-0.531 z"
         style="fill:#000000;fill-opacity:1;fill-rule:nonzero;stroke:none"
         id="path20" /><path
         d="m 280.637,793.156 c 0,-0.551 0.187,-1 0.562,-1.344 0.383,-0.343 0.821,-0.515 1.313,-0.515 0.488,0 0.922,0.183 1.297,0.547 0.375,0.355 0.562,0.793 0.562,1.312 0,0.481 -0.183,0.914 -0.547,1.297 -0.355,0.387 -0.793,0.578 -1.312,0.578 -0.5,0 -0.938,-0.176 -1.313,-0.531 -0.375,-0.363 -0.562,-0.812 -0.562,-1.344 z"
         style="fill:#000000;fill-opacity:1;fill-rule:nonzero;stroke:none"
         id="path22" /><path
         d="m 296.461,795.031 v -1.125 h 2.594 v -14.218 h -2.594 v -1.126 h 10.422 c 1.851,0 3.305,0.399 4.359,1.188 1.063,0.793 1.594,1.773 1.594,2.938 0,0.929 -0.371,1.73 -1.109,2.406 -0.743,0.668 -1.758,1.117 -3.047,1.344 1.437,0.117 2.613,0.546 3.531,1.296 0.926,0.75 1.391,1.696 1.391,2.828 0,1.25 -0.528,2.309 -1.579,3.172 -1.043,0.868 -2.515,1.297 -4.421,1.297 z m 5.734,-1.125 h 4.422 c 0.539,0 1.02,-0.07 1.438,-0.218 0.425,-0.145 0.754,-0.344 0.984,-0.594 0.238,-0.258 0.43,-0.508 0.578,-0.75 0.156,-0.239 0.258,-0.504 0.313,-0.797 0.062,-0.301 0.097,-0.516 0.109,-0.641 0.02,-0.133 0.031,-0.254 0.031,-0.359 0,-1.07 -0.261,-1.945 -0.781,-2.625 -0.555,-0.688 -1.367,-1.031 -2.437,-1.031 h -4.657 z m 0,-7.875 h 3.75 c 1.114,0 1.973,-0.312 2.578,-0.937 0.602,-0.625 0.907,-1.426 0.907,-2.406 0,-0.321 -0.043,-0.641 -0.125,-0.954 -0.086,-0.312 -0.219,-0.629 -0.407,-0.953 -0.179,-0.32 -0.468,-0.582 -0.875,-0.781 -0.398,-0.207 -0.882,-0.312 -1.453,-0.312 h -4.375 z"
         style="fill:#000000;fill-opacity:1;fill-rule:nonzero;stroke:none"
         id="path24" /><path
         d="m 315.934,792.438 c 0,-2.29 2.593,-3.547 7.781,-3.766 v -0.813 c 0,-1.894 -0.875,-2.843 -2.625,-2.843 -0.625,0 -1.203,0.058 -1.735,0.172 0.344,0.242 0.516,0.636 0.516,1.187 0,0.469 -0.152,0.84 -0.453,1.109 -0.293,0.262 -0.641,0.391 -1.047,0.391 -0.375,0 -0.719,-0.129 -1.031,-0.391 -0.313,-0.269 -0.469,-0.64 -0.469,-1.109 0,-1.469 1.438,-2.207 4.313,-2.219 1.718,0 3.023,0.34 3.921,1.016 0.907,0.668 1.36,1.562 1.36,2.687 v 5.157 c 0,0.23 0.015,0.39 0.047,0.484 0.031,0.094 0.156,0.188 0.375,0.281 0.226,0.086 0.578,0.125 1.047,0.125 0.132,0 0.234,0.012 0.296,0.032 0.063,0.011 0.129,0.058 0.204,0.14 0.07,0.074 0.109,0.199 0.109,0.375 0,0.262 -0.059,0.422 -0.172,0.485 -0.105,0.062 -0.305,0.093 -0.594,0.093 h -1.156 c -0.594,0 -1.074,-0.054 -1.437,-0.172 -0.368,-0.113 -0.618,-0.281 -0.75,-0.5 -0.137,-0.226 -0.219,-0.414 -0.25,-0.562 -0.032,-0.156 -0.047,-0.363 -0.047,-0.625 -0.688,1.336 -1.883,2 -3.578,2 -0.481,0 -0.965,-0.039 -1.454,-0.11 -0.48,-0.07 -0.976,-0.195 -1.484,-0.374 -0.512,-0.188 -0.922,-0.469 -1.234,-0.844 -0.305,-0.383 -0.453,-0.852 -0.453,-1.406 z m 2.796,-0.016 c 0,0.531 0.211,0.98 0.641,1.344 0.426,0.367 0.941,0.546 1.547,0.546 0.207,0 0.441,-0.031 0.703,-0.093 0.27,-0.071 0.578,-0.188 0.922,-0.344 0.344,-0.156 0.625,-0.426 0.844,-0.813 0.218,-0.382 0.328,-0.843 0.328,-1.374 v -2.266 c -0.344,0.012 -0.672,0.039 -0.985,0.078 -0.312,0.043 -0.734,0.133 -1.265,0.266 -0.531,0.136 -0.981,0.304 -1.344,0.5 -0.367,0.187 -0.687,0.468 -0.969,0.843 -0.281,0.375 -0.422,0.813 -0.422,1.313 z"
         style="fill:#000000;fill-opacity:1;fill-rule:nonzero;stroke:none"
         id="path26" /><path
         d="m 329.449,795.031 v -1.125 h 1.656 v -7.422 c 0,-0.445 -0.085,-0.711 -0.25,-0.796 -0.167,-0.094 -0.636,-0.141 -1.406,-0.141 v -1.125 l 3.985,-0.203 v 2.719 c 0.656,-1.801 1.718,-2.708 3.187,-2.719 0.676,0 1.27,0.183 1.781,0.547 0.508,0.355 0.766,0.828 0.766,1.422 0,0.449 -0.152,0.808 -0.453,1.078 -0.293,0.261 -0.633,0.39 -1.016,0.39 -0.387,0 -0.73,-0.125 -1.031,-0.375 -0.293,-0.258 -0.438,-0.625 -0.438,-1.093 0,-0.426 0.157,-0.79 0.469,-1.094 -0.562,0 -1.054,0.156 -1.469,0.468 -0.418,0.313 -0.73,0.727 -0.937,1.235 -0.211,0.5 -0.359,0.992 -0.453,1.469 -0.094,0.48 -0.141,0.961 -0.141,1.437 v 4.203 h 2.078 v 1.125 c -0.574,-0.051 -1.672,-0.078 -3.297,-0.078 -0.343,0 -1.355,0.027 -3.031,0.078 z"
         style="fill:#000000;fill-opacity:1;fill-rule:nonzero;stroke:none"
         id="path28" /><path
         d="m 340.793,795.031 v -1.125 h 1.656 v -7.422 c 0,-0.445 -0.086,-0.711 -0.25,-0.796 -0.168,-0.094 -0.637,-0.141 -1.406,-0.141 v -1.125 l 3.984,-0.203 v 2.719 c 0.657,-1.801 1.719,-2.708 3.188,-2.719 0.676,0 1.269,0.183 1.781,0.547 0.508,0.355 0.766,0.828 0.766,1.422 0,0.449 -0.153,0.808 -0.453,1.078 -0.293,0.261 -0.633,0.39 -1.016,0.39 -0.387,0 -0.731,-0.125 -1.031,-0.375 -0.293,-0.258 -0.438,-0.625 -0.438,-1.093 0,-0.426 0.156,-0.79 0.469,-1.094 -0.563,0 -1.055,0.156 -1.469,0.468 -0.418,0.313 -0.73,0.727 -0.937,1.235 -0.211,0.5 -0.36,0.992 -0.453,1.469 -0.094,0.48 -0.141,0.961 -0.141,1.437 v 4.203 h 2.078 v 1.125 c -0.574,-0.051 -1.672,-0.078 -3.297,-0.078 -0.344,0 -1.355,0.027 -3.031,0.078 z"
         style="fill:#000000;fill-opacity:1;fill-rule:nonzero;stroke:none"
         id="path30" /><path
         d="m 352.027,789.625 c 0,-1.57 0.52,-2.875 1.563,-3.906 1.051,-1.039 2.5,-1.563 4.344,-1.563 1.656,0 2.929,0.434 3.828,1.297 0.894,0.899 1.343,2.125 1.343,3.688 0,0.312 -0.054,0.5 -0.156,0.562 -0.105,0.063 -0.308,0.094 -0.609,0.094 h -7.25 c 0,2.937 1.125,4.406 3.375,4.406 0.008,0 0.019,0 0.031,0 0.781,0 1.484,-0.172 2.109,-0.515 0.625,-0.352 1.063,-0.817 1.313,-1.391 0.082,-0.207 0.156,-0.344 0.219,-0.406 0.07,-0.063 0.203,-0.094 0.39,-0.094 0.383,0 0.578,0.141 0.578,0.422 0,0.105 -0.046,0.261 -0.14,0.469 -0.086,0.199 -0.242,0.449 -0.469,0.75 -0.23,0.292 -0.516,0.57 -0.859,0.828 -0.344,0.25 -0.813,0.464 -1.407,0.64 -0.585,0.176 -1.234,0.266 -1.953,0.266 -1.906,0 -3.429,-0.516 -4.562,-1.547 -1.125,-1.031 -1.688,-2.363 -1.688,-4 z M 355.09,789 h 5.734 c -0.086,-2.656 -1.047,-3.984 -2.89,-3.984 -0.969,0 -1.727,0.418 -2.266,1.25 -0.324,0.5 -0.516,1.414 -0.578,2.734 z"
         style="fill:#000000;fill-opacity:1;fill-rule:nonzero;stroke:none"
         id="path32" /><path
         d="m 365.016,795.031 v -1.125 h 1.672 v -7.422 c 0,-0.445 -0.086,-0.711 -0.25,-0.796 -0.157,-0.094 -0.606,-0.141 -1.344,-0.141 v -1.125 l 4.172,-0.203 v 9.687 h 1.5 v 1.125 c -1.731,-0.051 -2.668,-0.078 -2.813,-0.078 -0.469,0 -1.449,0.027 -2.937,0.078 z m 1.281,-13.484 c -0.356,-0.375 -0.531,-0.817 -0.531,-1.328 0,-0.508 0.175,-0.946 0.531,-1.313 0.363,-0.363 0.812,-0.547 1.344,-0.547 0.519,0 0.961,0.184 1.328,0.547 0.363,0.367 0.547,0.805 0.547,1.313 0,0.511 -0.188,0.953 -0.563,1.328 -0.367,0.367 -0.805,0.547 -1.312,0.547 -0.532,0 -0.981,-0.18 -1.344,-0.547 z"
         style="fill:#000000;fill-opacity:1;fill-rule:nonzero;stroke:none"
         id="path34" /><path
         d="m 372.434,795.031 v -1.125 h 1.656 v -7.422 c 0,-0.445 -0.086,-0.711 -0.25,-0.796 -0.168,-0.094 -0.637,-0.141 -1.406,-0.141 v -1.125 l 3.984,-0.203 v 2.719 c 0.656,-1.801 1.719,-2.708 3.187,-2.719 0.676,0 1.27,0.183 1.782,0.547 0.508,0.355 0.765,0.828 0.765,1.422 0,0.449 -0.152,0.808 -0.453,1.078 -0.293,0.261 -0.633,0.39 -1.015,0.39 -0.387,0 -0.731,-0.125 -1.032,-0.375 -0.293,-0.258 -0.437,-0.625 -0.437,-1.093 0,-0.426 0.156,-0.79 0.469,-1.094 -0.563,0 -1.055,0.156 -1.469,0.468 -0.418,0.313 -0.731,0.727 -0.938,1.235 -0.211,0.5 -0.359,0.992 -0.453,1.469 -0.094,0.48 -0.14,0.961 -0.14,1.437 v 4.203 h 2.078 v 1.125 c -0.574,-0.051 -1.672,-0.078 -3.297,-0.078 -0.344,0 -1.356,0.027 -3.031,0.078 z"
         style="fill:#000000;fill-opacity:1;fill-rule:nonzero;stroke:none"
         id="path36" /><path
         d="m 383.668,792.438 c 0,-2.29 2.594,-3.547 7.781,-3.766 v -0.813 c 0,-1.894 -0.875,-2.843 -2.625,-2.843 -0.625,0 -1.203,0.058 -1.734,0.172 0.344,0.242 0.515,0.636 0.515,1.187 0,0.469 -0.152,0.84 -0.453,1.109 -0.293,0.262 -0.64,0.391 -1.047,0.391 -0.375,0 -0.718,-0.129 -1.031,-0.391 -0.312,-0.269 -0.469,-0.64 -0.469,-1.109 0,-1.469 1.438,-2.207 4.313,-2.219 1.719,0 3.023,0.34 3.922,1.016 0.906,0.668 1.359,1.562 1.359,2.687 v 5.157 c 0,0.23 0.016,0.39 0.047,0.484 0.031,0.094 0.156,0.188 0.375,0.281 0.227,0.086 0.578,0.125 1.047,0.125 0.133,0 0.234,0.012 0.297,0.032 0.062,0.011 0.129,0.058 0.203,0.14 0.07,0.074 0.109,0.199 0.109,0.375 0,0.262 -0.058,0.422 -0.172,0.485 -0.105,0.062 -0.304,0.093 -0.593,0.093 h -1.157 c -0.593,0 -1.074,-0.054 -1.437,-0.172 -0.367,-0.113 -0.617,-0.281 -0.75,-0.5 -0.137,-0.226 -0.219,-0.414 -0.25,-0.562 -0.031,-0.156 -0.047,-0.363 -0.047,-0.625 -0.687,1.336 -1.883,2 -3.578,2 -0.481,0 -0.965,-0.039 -1.453,-0.11 -0.481,-0.07 -0.977,-0.195 -1.485,-0.374 -0.511,-0.188 -0.921,-0.469 -1.234,-0.844 -0.305,-0.383 -0.453,-0.852 -0.453,-1.406 z m 2.797,-0.016 c 0,0.531 0.211,0.98 0.64,1.344 0.426,0.367 0.942,0.546 1.547,0.546 0.207,0 0.442,-0.031 0.703,-0.093 0.27,-0.071 0.579,-0.188 0.922,-0.344 0.344,-0.156 0.625,-0.426 0.844,-0.813 0.219,-0.382 0.328,-0.843 0.328,-1.374 v -2.266 c -0.344,0.012 -0.672,0.039 -0.984,0.078 -0.313,0.043 -0.735,0.133 -1.266,0.266 -0.531,0.136 -0.98,0.304 -1.344,0.5 -0.367,0.187 -0.687,0.468 -0.968,0.843 -0.282,0.375 -0.422,0.813 -0.422,1.313 z"
         style="fill:#000000;fill-opacity:1;fill-rule:nonzero;stroke:none"
         id="path38" /><g
         id="g33507"
         transform="translate(-19.730464)"><g
           id="g40"><path
             d="m 226.738,307.059 c 13.703,-3.297 36.492,-34.801 22.098,-61.649 -6.371,-11.887 -19.762,-17.191 -28.59,-16.949"
             style="fill:none;stroke:#00080f;stroke-width:7.19847;stroke-linecap:round;stroke-linejoin:round;stroke-miterlimit:1.5;stroke-dasharray:none;stroke-opacity:1"
             id="path42" /></g><g
           id="g44"><path
             d="M 192.039,230.945 C 5.41,258.004 155.301,572.77 182.66,364.32"
             style="fill:none;stroke:#00080f;stroke-width:7.19847;stroke-linecap:round;stroke-linejoin:round;stroke-miterlimit:1.5;stroke-dasharray:none;stroke-opacity:1"
             id="path46" /></g><g
           id="g48"><path
             d="m 182.496,340.152 c -0.41,-32.886 15.93,-88.996 55.793,-87.644"
             style="fill:none;stroke:#00080f;stroke-width:7.19847;stroke-linecap:round;stroke-linejoin:round;stroke-miterlimit:1.5;stroke-dasharray:none;stroke-opacity:1"
             id="path50" /></g><g
           id="g52"><path
             d="m 261.426,252.508 c 38.574,-0.52 47.414,70.625 23.097,104.527"
             style="fill:none;stroke:#00080f;stroke-width:7.19847;stroke-linecap:round;stroke-linejoin:round;stroke-miterlimit:1.5;stroke-dasharray:none;stroke-opacity:1"
             id="path54" /></g><g
           id="g56"><path
             d="m 174.852,423.738 c 45.457,18.625 81.437,-27.179 99.093,-49.883"
             style="fill:none;stroke:#00080f;stroke-width:7.19847;stroke-linecap:round;stroke-linejoin:round;stroke-miterlimit:1.5;stroke-dasharray:none;stroke-opacity:1"
             id="path58" /></g><g
           id="g60"><path
             d="m 158.188,414.074 c -32.184,-31.406 -6.567,-65.558 47.054,-64.519"
             style="fill:none;stroke:#00080f;stroke-width:7.19847;stroke-linecap:round;stroke-linejoin:round;stroke-miterlimit:1.5;stroke-dasharray:none;stroke-opacity:1"
             id="path62" /></g><g
           id="g64"><path
             d="m 232.617,349.57 c 88.133,-1.41 60.254,102.489 17.168,68.184"
             style="fill:none;stroke:#00080f;stroke-width:7.19847;stroke-linecap:round;stroke-linejoin:round;stroke-miterlimit:1.5;stroke-dasharray:none;stroke-opacity:1"
             id="path66" /></g><g
           id="g68"><path
             d="m 215.469,272.547 c 1.105,25.891 -0.828,113.098 17.148,128.426"
             style="fill:none;stroke:#00080f;stroke-width:7.19847;stroke-linecap:round;stroke-linejoin:round;stroke-miterlimit:1.5;stroke-dasharray:none;stroke-opacity:1"
             id="path70" /></g><g
           id="g72"><path
             d="m 212.566,248.707 c -3.027,-49.871 -73.621,-55.582 -74.664,-6.441"
             style="fill:none;stroke:#00080f;stroke-width:7.19847;stroke-linecap:round;stroke-linejoin:round;stroke-miterlimit:1.5;stroke-dasharray:none;stroke-opacity:1"
             id="path74" /></g><g
           id="g76"><path
             d="m 137.902,264.879 c 0.536,26.836 14.309,46.992 36.95,45.644"
             style="fill:none;stroke:#00080f;stroke-width:7.19847;stroke-linecap:round;stroke-linejoin:round;stroke-miterlimit:1.5;stroke-dasharray:none;stroke-opacity:1"
             id="path78" /></g><g
           id="g80"><path
             d="m 196.969,310.562 c 5.824,-0.109 7.308,-0.179 10.566,-0.507 1.274,-0.129 0,0 0,0"
             style="fill:none;stroke:#00080f;stroke-width:7.19847;stroke-linecap:round;stroke-linejoin:round;stroke-miterlimit:1.5;stroke-dasharray:none;stroke-opacity:1"
             id="path82" /></g><text
           xml:space="preserve"
           style="font-style:normal;font-weight:normal;font-size:24.1305px;line-height:1.25;font-family:sans-serif;fill:#000000;fill-opacity:1;stroke:none;stroke-width:0.603262"
           x="311.19736"
           y="370.17841"
           id="text1759"><tspan
             sodipodi:role="line"
             style="font-style:normal;font-variant:normal;font-weight:normal;font-stretch:normal;font-family:'Gentium Book Plus';-inkscape-font-specification:'Gentium Book Plus';stroke-width:0.603262"
             x="311.19736"
             y="370.17841"
             id="tspan2195">Category Theory and</tspan><tspan
             sodipodi:role="line"
             style="font-style:normal;font-variant:normal;font-weight:normal;font-stretch:normal;font-size:22.5218px;font-family:'Gentium Book Plus';-inkscape-font-specification:'Gentium Book Plus';stroke-width:0.603262"
             x="311.19736"
             y="400.57718"
             id="tspan1761"
             dy="0">Functional Programming</tspan><tspan
             sodipodi:role="line"
             style="font-style:normal;font-variant:normal;font-weight:normal;font-stretch:normal;font-size:18px;font-family:'Gentium Book Plus';-inkscape-font-specification:'Gentium Book Plus';fill:#808080;stroke-width:0.603262"
             x="311.19736"
             y="430.7403"
             dy="0 0 0 0 0 0 0 0 0 0 0 0 0 0 0 0 0 0 0 0 0 0 0"
             id="tspan32244">Code examples in Julia</tspan></text></g></g></g></svg>
